      <svg
        width="209"
        height="36"
        viewBox="0 0 209 36"
        fill="none"
        xmlns="http://www.w3.org/2000/svg"
      >
        <g filter="url(#filter0_d)">
          <path
            d="M5.004 2.538V14.13H17.154V14.976H5.004V27H4.014V1.692H18.954V2.538H5.004ZM25.3243 14.328H30.1483C31.3363 14.328 32.4043 14.19 33.3523 13.914C34.3123 13.626 35.1223 13.218 35.7823 12.69C36.4543 12.15 36.9643 11.502 37.3123 10.746C37.6723 9.99 37.8523 9.138 37.8523 8.19C37.8523 6.234 37.2163 4.794 35.9443 3.87C34.6723 2.946 32.8363 2.484 30.4363 2.484H25.3243V14.328ZM41.1283 27H40.3183C40.1863 27 40.0663 26.982 39.9583 26.946C39.8623 26.91 39.7663 26.826 39.6703 26.694L30.7423 15.768C30.6463 15.636 30.5443 15.528 30.4363 15.444C30.3403 15.36 30.2263 15.294 30.0943 15.246C29.9743 15.186 29.8243 15.144 29.6443 15.12C29.4763 15.096 29.2663 15.084 29.0143 15.084H25.3243V27H24.3343V1.692H30.4363C33.1843 1.692 35.2723 2.226 36.7003 3.294C38.1283 4.362 38.8423 5.982 38.8423 8.154C38.8423 9.15 38.6563 10.056 38.2843 10.872C37.9123 11.676 37.3903 12.378 36.7183 12.978C36.0463 13.566 35.2303 14.04 34.2703 14.4C33.3103 14.748 32.2483 14.958 31.0843 15.03C31.3003 15.15 31.5103 15.33 31.7143 15.57L41.1283 27ZM51.8628 15.606C53.0508 15.606 54.1188 15.438 55.0668 15.102C56.0268 14.766 56.8368 14.304 57.4968 13.716C58.1688 13.128 58.6848 12.432 59.0448 11.628C59.4048 10.824 59.5848 9.96 59.5848 9.036C59.5848 6.9 58.9428 5.274 57.6588 4.158C56.3748 3.042 54.4428 2.484 51.8628 2.484H46.8048V15.606H51.8628ZM51.8628 1.692C54.7188 1.692 56.8848 2.304 58.3608 3.528C59.8488 4.752 60.5928 6.588 60.5928 9.036C60.5928 10.104 60.3828 11.094 59.9628 12.006C59.5548 12.906 58.9668 13.686 58.1988 14.346C57.4308 14.994 56.5068 15.504 55.4268 15.876C54.3588 16.236 53.1708 16.416 51.8628 16.416H46.8048V27H45.8148V1.692H51.8628Z"
            fill="black"
          />
          <path
            d="M84.8708 22.41C85.6748 22.41 86.3288 22.308 86.8328 22.104C87.3488 21.9 87.7508 21.636 88.0388 21.312C88.3268 20.988 88.5248 20.622 88.6328 20.214C88.7408 19.806 88.7948 19.392 88.7948 18.972C88.7948 18.492 88.7288 18.06 88.5968 17.676C88.4768 17.292 88.2608 16.968 87.9488 16.704C87.6488 16.44 87.2468 16.236 86.7428 16.092C86.2388 15.948 85.6028 15.876 84.8348 15.876H80.5868V22.41H84.8708ZM80.5868 5.328V11.808H83.7548C84.4268 11.808 85.0328 11.76 85.5728 11.664C86.1128 11.568 86.5688 11.4 86.9408 11.16C87.3248 10.92 87.6128 10.59 87.8048 10.17C88.0088 9.75 88.1108 9.222 88.1108 8.586C88.1108 7.962 88.0328 7.446 87.8768 7.038C87.7208 6.618 87.4808 6.282 87.1568 6.03C86.8328 5.778 86.4188 5.598 85.9148 5.49C85.4228 5.382 84.8348 5.328 84.1508 5.328H80.5868ZM84.1508 0.774C85.9628 0.774 87.5048 0.942 88.7768 1.278C90.0488 1.614 91.0868 2.088 91.8908 2.7C92.6948 3.312 93.2768 4.056 93.6368 4.932C94.0088 5.808 94.1948 6.786 94.1948 7.866C94.1948 8.454 94.1108 9.024 93.9428 9.576C93.7748 10.116 93.5108 10.626 93.1508 11.106C92.7908 11.574 92.3288 12.006 91.7648 12.402C91.2008 12.798 90.5228 13.14 89.7308 13.428C91.4588 13.848 92.7368 14.526 93.5648 15.462C94.3928 16.398 94.8068 17.61 94.8068 19.098C94.8068 20.214 94.5908 21.252 94.1588 22.212C93.7268 23.172 93.0908 24.012 92.2508 24.732C91.4228 25.44 90.3968 25.998 89.1728 26.406C87.9488 26.802 86.5508 27 84.9788 27H74.5028V0.774H84.1508ZM110.235 17.028V27H104.151V17.028L94.6468 0.774H100.011C100.539 0.774 100.953 0.899999 101.253 1.152C101.565 1.392 101.823 1.704 102.027 2.088L105.735 9.72C106.047 10.32 106.329 10.884 106.581 11.412C106.833 11.928 107.055 12.438 107.247 12.942C107.427 12.426 107.631 11.91 107.859 11.394C108.099 10.866 108.375 10.308 108.687 9.72L112.359 2.088C112.443 1.932 112.545 1.776 112.665 1.62C112.785 1.464 112.923 1.326 113.079 1.206C113.247 1.074 113.433 0.971998 113.637 0.899999C113.853 0.816 114.087 0.774 114.339 0.774H119.739L110.235 17.028ZM131.04 13.644C132.624 13.644 133.764 13.266 134.46 12.51C135.156 11.754 135.504 10.698 135.504 9.342C135.504 8.742 135.414 8.196 135.234 7.704C135.054 7.212 134.778 6.792 134.406 6.444C134.046 6.084 133.584 5.808 133.02 5.616C132.468 5.424 131.808 5.328 131.04 5.328H127.872V13.644H131.04ZM131.04 0.774C132.888 0.774 134.472 0.995999 135.792 1.44C137.124 1.872 138.216 2.472 139.068 3.24C139.932 4.008 140.568 4.914 140.976 5.958C141.384 7.002 141.588 8.13 141.588 9.342C141.588 10.65 141.378 11.85 140.958 12.942C140.538 14.034 139.896 14.97 139.032 15.75C138.168 16.53 137.07 17.142 135.738 17.586C134.418 18.018 132.852 18.234 131.04 18.234H127.872V27H121.788V0.774H131.04ZM156.707 16.974L154.277 9.792C154.097 9.336 153.905 8.802 153.701 8.19C153.497 7.566 153.293 6.894 153.089 6.174C152.909 6.906 152.717 7.584 152.513 8.208C152.309 8.832 152.117 9.372 151.937 9.828L149.525 16.974H156.707ZM166.373 27H161.657C161.129 27 160.703 26.88 160.379 26.64C160.055 26.388 159.809 26.07 159.641 25.686L158.093 21.114H148.121L146.573 25.686C146.441 26.022 146.201 26.328 145.853 26.604C145.517 26.868 145.097 27 144.593 27H139.841L149.993 0.774H156.221L166.373 27ZM182.93 6.102C182.75 6.39 182.558 6.606 182.354 6.75C182.162 6.894 181.91 6.966 181.598 6.966C181.322 6.966 181.022 6.882 180.698 6.714C180.386 6.534 180.026 6.336 179.618 6.12C179.222 5.904 178.766 5.712 178.25 5.544C177.734 5.364 177.146 5.274 176.486 5.274C175.346 5.274 174.494 5.52 173.93 6.012C173.378 6.492 173.102 7.146 173.102 7.974C173.102 8.502 173.27 8.94 173.606 9.288C173.942 9.636 174.38 9.936 174.92 10.188C175.472 10.44 176.096 10.674 176.792 10.89C177.5 11.094 178.22 11.328 178.952 11.592C179.684 11.844 180.398 12.144 181.094 12.492C181.802 12.84 182.426 13.284 182.966 13.824C183.518 14.364 183.962 15.024 184.298 15.804C184.634 16.572 184.802 17.502 184.802 18.594C184.802 19.806 184.592 20.94 184.172 21.996C183.752 23.052 183.14 23.976 182.336 24.768C181.544 25.548 180.56 26.166 179.384 26.622C178.22 27.066 176.894 27.288 175.406 27.288C174.59 27.288 173.756 27.204 172.904 27.036C172.064 26.868 171.248 26.634 170.456 26.334C169.664 26.022 168.92 25.656 168.224 25.236C167.528 24.816 166.922 24.348 166.406 23.832L168.206 20.988C168.35 20.784 168.536 20.616 168.764 20.484C169.004 20.34 169.262 20.268 169.538 20.268C169.898 20.268 170.258 20.382 170.618 20.61C170.99 20.838 171.404 21.09 171.86 21.366C172.328 21.642 172.862 21.894 173.462 22.122C174.062 22.35 174.77 22.464 175.586 22.464C176.69 22.464 177.548 22.224 178.16 21.744C178.772 21.252 179.078 20.478 179.078 19.422C179.078 18.81 178.91 18.312 178.574 17.928C178.238 17.544 177.794 17.226 177.242 16.974C176.702 16.722 176.084 16.5 175.388 16.308C174.692 16.116 173.978 15.906 173.246 15.678C172.514 15.438 171.8 15.15 171.104 14.814C170.408 14.466 169.784 14.016 169.232 13.464C168.692 12.9 168.254 12.204 167.918 11.376C167.582 10.536 167.414 9.504 167.414 8.28C167.414 7.296 167.612 6.336 168.008 5.4C168.404 4.464 168.986 3.63 169.754 2.898C170.522 2.166 171.464 1.584 172.58 1.152C173.696 0.707999 174.974 0.485999 176.414 0.485999C177.218 0.485999 177.998 0.551999 178.754 0.684C179.522 0.804 180.248 0.989999 180.932 1.242C181.616 1.482 182.252 1.776 182.84 2.124C183.44 2.46 183.974 2.844 184.442 3.276L182.93 6.102ZM202.864 6.102C202.684 6.39 202.492 6.606 202.288 6.75C202.096 6.894 201.844 6.966 201.532 6.966C201.256 6.966 200.956 6.882 200.632 6.714C200.32 6.534 199.96 6.336 199.552 6.12C199.156 5.904 198.7 5.712 198.184 5.544C197.668 5.364 197.08 5.274 196.42 5.274C195.28 5.274 194.428 5.52 193.864 6.012C193.312 6.492 193.036 7.146 193.036 7.974C193.036 8.502 193.204 8.94 193.54 9.288C193.876 9.636 194.314 9.936 194.854 10.188C195.406 10.44 196.03 10.674 196.726 10.89C197.434 11.094 198.154 11.328 198.886 11.592C199.618 11.844 200.332 12.144 201.028 12.492C201.736 12.84 202.36 13.284 202.9 13.824C203.452 14.364 203.896 15.024 204.232 15.804C204.568 16.572 204.736 17.502 204.736 18.594C204.736 19.806 204.526 20.94 204.106 21.996C203.686 23.052 203.074 23.976 202.27 24.768C201.478 25.548 200.494 26.166 199.318 26.622C198.154 27.066 196.828 27.288 195.34 27.288C194.524 27.288 193.69 27.204 192.838 27.036C191.998 26.868 191.182 26.634 190.39 26.334C189.598 26.022 188.854 25.656 188.158 25.236C187.462 24.816 186.856 24.348 186.34 23.832L188.14 20.988C188.284 20.784 188.47 20.616 188.698 20.484C188.938 20.34 189.196 20.268 189.472 20.268C189.832 20.268 190.192 20.382 190.552 20.61C190.924 20.838 191.338 21.09 191.794 21.366C192.262 21.642 192.796 21.894 193.396 22.122C193.996 22.35 194.704 22.464 195.52 22.464C196.624 22.464 197.482 22.224 198.094 21.744C198.706 21.252 199.012 20.478 199.012 19.422C199.012 18.81 198.844 18.312 198.508 17.928C198.172 17.544 197.728 17.226 197.176 16.974C196.636 16.722 196.018 16.5 195.322 16.308C194.626 16.116 193.912 15.906 193.18 15.678C192.448 15.438 191.734 15.15 191.038 14.814C190.342 14.466 189.718 14.016 189.166 13.464C188.626 12.9 188.188 12.204 187.852 11.376C187.516 10.536 187.348 9.504 187.348 8.28C187.348 7.296 187.546 6.336 187.942 5.4C188.338 4.464 188.92 3.63 189.688 2.898C190.456 2.166 191.398 1.584 192.514 1.152C193.63 0.707999 194.908 0.485999 196.348 0.485999C197.152 0.485999 197.932 0.551999 198.688 0.684C199.456 0.804 200.182 0.989999 200.866 1.242C201.55 1.482 202.186 1.776 202.774 2.124C203.374 2.46 203.908 2.844 204.376 3.276L202.864 6.102Z"
            fill="#383E37"
          />
        </g>
        <defs>
          <filter
            id="filter0_d"
            x="0.0141602"
            y="0.485992"
            width="208.722"
            height="34.802"
            filterUnits="userSpaceOnUse"
            color-interpolation-filters="sRGB"
          >
            <feFlood flood-opacity="0" result="BackgroundImageFix" />
            <feColorMatrix
              in="SourceAlpha"
              type="matrix"
              values="0 0 0 0 0 0 0 0 0 0 0 0 0 0 0 0 0 0 127 0"
            />
            <feOffset dy="4" />
            <feGaussianBlur stdDeviation="2" />
            <feColorMatrix
              type="matrix"
              values="0 0 0 0 0 0 0 0 0 0 0 0 0 0 0 0 0 0 0.25 0"
            />
            <feBlend
              mode="normal"
              in2="BackgroundImageFix"
              result="effect1_dropShadow"
            />
            <feBlend
              mode="normal"
              in="SourceGraphic"
              in2="effect1_dropShadow"
              result="shape"
            />
          </filter>
        </defs>
      </svg>